<?xml version="1.0" encoding="utf-8"?>
<!-- Generator: Adobe Illustrator 22.1.0, SVG Export Plug-In . SVG Version: 6.00 Build 0)  -->
<svg version="1.1" id="Layer_1" xmlns="http://www.w3.org/2000/svg" xmlns:xlink="http://www.w3.org/1999/xlink" x="0px" y="0px"
	 viewBox="0 0 20 18" style="enable-background:new 0 0 20 18;" xml:space="preserve">
<style type="text/css">
	.st0{fill:#32425C;}
</style>
<path class="st0" d="M17.9,14.2c-2.1-0.7-4.3-1.7-5.2-2.4c-0.7-0.5-0.8-1.6-0.5-2.4C13.3,8.5,14,6.9,14,5.1C14,2.3,12.2,0,10,0
	S6,2.3,6,5.1c0,1.8,0.7,3.4,1.9,4.3c0.3,0.8,0.1,1.9-0.5,2.4c-0.9,0.7-3.1,1.7-5.2,2.4S0,18,0,18h20C20,18,20,14.9,17.9,14.2z"/>
</svg>
